<?xml version="1.0" encoding="utf-8"?>
<!-- Generator: Adobe Illustrator 27.3.1, SVG Export Plug-In . SVG Version: 6.00 Build 0)  -->
<svg version="1.1" id="Layer_1" xmlns="http://www.w3.org/2000/svg" xmlns:xlink="http://www.w3.org/1999/xlink" x="0px" y="0px"
	 viewBox="0 0 669 592" style="enable-background:new 0 0 669 592;" xml:space="preserve">
<style type="text/css">
	.st0{fill:url(#SVGID_1_);}
</style>
<linearGradient id="SVGID_1_" gradientUnits="userSpaceOnUse" x1="1.818989e-12" y1="295.9942" x2="669.0054" y2="295.9942">
	<stop  offset="0" style="stop-color:#1170FF"/>
	<stop  offset="1" style="stop-color:#E534FF"/>
</linearGradient>
<path class="st0" d="M377.4,402l79-0.4c17-0.1,32.8,9,41.4,23.7l82.5,142.9c8.5,14.7,24.2,23.7,41.1,23.7h0.1
	c36.5,0,59.3-39.6,41.1-71.2L519.1,272.2l-47.2-81.7L375.6,23.7c-18.3-31.6-63.9-31.6-82.2,0l-13.8,23.8l0,0L6.4,520.7
	c-18.3,31.6,4.6,71.2,41.1,71.2l354.5,0c36.5,0,59.4-39.5,41.1-71.2l0,0c-8.5-14.7-24.1-23.7-41.1-23.7L212,497
	c-36.5,0-59.3-39.6-41.1-71.2l122.4-212c18.3-31.6,63.9-31.6,82.2,0l0.3,0.6c8.5,14.7,8.5,32.8,0,47.5L336,330.8
	C317.7,362.6,340.7,402.2,377.4,402z"/>
</svg>
