<?xml version="1.0" encoding="utf-8"?>
<!-- Generator: Adobe Illustrator 26.3.1, SVG Export Plug-In . SVG Version: 6.00 Build 0)  -->
<svg version="1.1" id="레이어_1" xmlns="http://www.w3.org/2000/svg" xmlns:xlink="http://www.w3.org/1999/xlink" x="0px"
	 y="0px" viewBox="0 0 400 600" style="enable-background:new 0 0 400 600;" xml:space="preserve">
<style type="text/css">
	.st0{fill:#040000;}
	.st1{fill:#FFFFFF;stroke:#040000;stroke-miterlimit:10;}
	.st2{fill:#040000;stroke:#040000;stroke-miterlimit:10;}
</style>
<g>
	<path class="st0" d="M199.22,152.51c-55,0-81.08-7.9-93.28-14.52c-13.12-7.12-13.34-14.3-13.34-14.38v-18.1
		c3.77,6.9,21.67,22.68,106.62,22.68s102.85-15.78,106.62-22.68v18.1c0,0.07-0.22,7.25-13.34,14.37
		C280.3,144.61,254.22,152.51,199.22,152.51z"/>
	<path class="st0" d="M305.34,107.14l0,16.46c0,0.07-0.29,7.07-13.3,14.06c-12.18,6.54-38.17,14.34-92.82,14.34
		s-80.64-7.8-92.82-14.34c-13.01-6.99-13.29-13.99-13.3-14.05v-16.47c5.57,7.6,26.62,21.56,106.12,21.56
		S299.77,114.74,305.34,107.14 M306.34,102.39c0,0,0,25.31-107.12,25.31S92.1,102.39,92.1,102.39v21.23c0,0,0,29.39,107.12,29.39
		s107.12-29.39,107.12-29.39V102.39L306.34,102.39z"/>
</g>
<path class="st1" d="M199.22,118.91"/>
<g>
	<polygon class="st0" points="183.64,127.96 190.05,23.49 208.39,23.49 214.81,127.96 	"/>
	<path class="st0" d="M207.92,23.99l6.36,103.47h-15.06h-15.06l6.36-103.47h8.7H207.92 M208.86,22.99h-9.64h-9.64l-6.48,105.47
		h16.12h16.12L208.86,22.99L208.86,22.99z"/>
</g>
<g>
	<path class="st0" d="M189.91,22.49c-0.14-0.27-0.39-0.72-0.83-1.53c-2.34-4.22-9.4-16.93-6.77-20.39h33.82
		c2.63,3.46-4.42,16.16-6.77,20.39c-0.45,0.8-0.69,1.25-0.83,1.53H189.91z"/>
	<path class="st0" d="M215.86,1.08c0.97,1.68,0.35,6.52-6.94,19.64c-0.32,0.57-0.54,0.98-0.7,1.27h-9.01h-9.01
		c-0.16-0.29-0.38-0.7-0.7-1.27c-7.28-13.12-7.9-17.96-6.94-19.64h16.64H215.86 M216.36,0.08h-17.14h-17.14
		c-3.95,4.22,7.5,22.38,7.5,22.91h9.64h9.64C208.86,22.46,220.31,4.3,216.36,0.08L216.36,0.08z"/>
</g>
<path class="st2" d="M220.01,302.74c-7.87-68.21,0.79-152.4,0.79-152.4l-21.26,2.66l-21.26-2.66c0,0,8.66,84.19,0.79,152.4
	s-17.32,121.49,20.47,280.28C237.33,424.24,227.88,370.95,220.01,302.74z"/>
<path class="st2" d="M244.21,244.13"/>
<path class="st2" d="M199.53,583.03"/>
<g>
	<path class="st0" d="M204.21,598.75c2.22-11.75,18.39-93.69,45.25-139.63c14.29-24.43,22.48-30.67,30.41-36.71
		c8.57-6.53,16.67-12.69,31.6-39.35c12.62-22.52,14.82-47.83,16.94-72.3c2.84-32.76,5.53-63.7,32.04-86.16l36.86-31.23
		c-8.37,13.36-42.87,71.75-40.02,122.12c3.19,56.37-43.68,164.6-82.87,210.39C238.28,568.13,209.99,593.66,204.21,598.75z"/>
	<path class="st0" d="M395.22,195.81c-4.19,6.87-11.56,19.63-18.68,35.37c-9.94,21.97-21.43,54.44-19.74,84.34
		c1.44,25.4-7.65,64.61-24.92,107.58c-16.56,41.19-38.18,79.49-57.83,102.45c-34.23,40-61.41,65-69.07,71.84
		c3.06-15.84,19.01-93.72,44.92-138.03c14.23-24.34,22.39-30.56,30.28-36.57c8.23-6.27,16.75-12.76,31.74-39.5
		c12.67-22.62,14.88-47.98,17-72.5c2.83-32.66,5.51-63.5,31.86-85.82L395.22,195.81 M399.53,190.84c0,0,0,0-39.4,33.38
		c-46.79,39.64-19.87,106.46-49.09,158.6c-29.22,52.14-32.79,26.08-62.01,76.05c-29.22,49.97-45.58,141.21-45.58,141.21
		s30.45-26.07,71.35-73.87c40.91-47.8,86.09-155.91,82.99-210.74C354.54,257.98,399.53,190.84,399.53,190.84L399.53,190.84z"/>
</g>
<path class="st2" d="M357.37,332.96c0,0,2.53-22.76,11.1-37.68c8.57-14.92,16.02-19.72,16.02-19.72s-16.02,29.31-19.23,59.15
	c-3.21,29.84-24.9,78.12-42.98,113.13"/>
<g>
	<path class="st0" d="M194.86,598.75c-5.78-5.1-34.07-30.63-70.22-72.87C85.45,480.11,38.58,371.87,41.77,315.5
		c2.85-50.37-31.65-108.77-40.02-122.12l36.86,31.23c26.5,22.46,29.19,53.4,32.03,86.16c2.12,24.47,4.32,49.78,16.94,72.3
		c14.94,26.65,23.03,32.82,31.6,39.35c7.93,6.04,16.13,12.28,30.41,36.71C176.47,505.06,192.64,587,194.86,598.75z"/>
	<path class="st0" d="M3.85,195.81l34.43,29.17c26.35,22.32,29.03,53.17,31.86,85.82c2.13,24.52,4.33,49.88,17,72.5
		c14.99,26.74,23.5,33.23,31.74,39.5c7.89,6.01,16.05,12.22,30.28,36.57c25.91,44.3,41.86,122.19,44.92,138.03
		c-7.67-6.85-34.84-31.85-69.07-71.84c-19.65-22.96-41.27-61.26-57.83-102.45c-17.27-42.97-26.36-82.18-24.92-107.58
		c1.69-29.9-9.8-62.37-19.74-84.34C15.41,215.44,8.05,202.68,3.85,195.81 M-0.47,190.84c0,0,44.99,67.14,41.74,124.63
		c-3.1,54.83,42.08,162.94,82.99,210.74c40.91,47.8,71.35,73.87,71.35,73.87s-16.36-91.24-45.58-141.21s-32.79-23.91-62.01-76.05
		c-29.22-52.14-2.3-118.96-49.09-158.6C-0.47,190.84-0.47,190.84-0.47,190.84L-0.47,190.84z"/>
</g>
<path class="st2" d="M41.7,332.96c0,0-2.53-22.76-11.1-37.68c-8.57-14.92-16.02-19.72-16.02-19.72s16.02,29.31,19.23,59.15
	c3.21,29.84,24.9,78.12,42.98,113.13"/>
</svg>
