<?xml version="1.0" encoding="utf-8"?>
<!-- Generator: Adobe Illustrator 26.3.1, SVG Export Plug-In . SVG Version: 6.00 Build 0)  -->
<svg version="1.1" xmlns="http://www.w3.org/2000/svg" xmlns:xlink="http://www.w3.org/1999/xlink" x="0px" y="0px"
	 viewBox="0 0 400 600" style="enable-background:new 0 0 400 600;" xml:space="preserve">
<style type="text/css">
	.st0{display:none;}
	.st1{display:inline;fill:#040000;}
	.st2{fill:#4D78BC;}
</style>
<g id="레이어_2" class="st0">
	<rect y="0.08" class="st1" width="399.53" height="600"/>
</g>
<g id="레이어_1">
	<g>
		<path class="st2" d="M199.22,127.7C92.1,127.7,92.1,102.39,92.1,102.39v21.23c0,0,0,29.39,107.12,29.39s107.12-29.39,107.12-29.39
			v-21.23C306.34,102.39,306.34,127.7,199.22,127.7z"/>
	</g>
	<path class="st2" d="M199.22,118.91"/>
	<g>
		<polygon class="st2" points="208.86,22.99 199.22,22.99 189.58,22.99 183.1,128.46 199.22,128.46 215.34,128.46 		"/>
	</g>
	<g>
		<path class="st2" d="M216.36,0.08h-17.14h-17.14c-3.95,4.22,7.5,22.38,7.5,22.91h9.64h9.64C208.86,22.46,220.31,4.3,216.36,0.08z"
			/>
	</g>
	<path class="st2" d="M220.01,302.74c-7.87-68.21,0.79-152.4,0.79-152.4l-21.26,2.66l-21.26-2.66c0,0,8.66,84.19,0.79,152.4
		s-17.32,121.49,20.47,280.28C237.33,424.24,227.88,370.95,220.01,302.74z"/>
	<path class="st2" d="M244.21,244.13"/>
	<path class="st2" d="M199.53,583.03"/>
	<g>
		<path class="st2" d="M203.46,600.08c0,0,16.36-91.24,45.58-141.21s32.79-23.91,62.01-76.05c29.22-52.14,2.3-118.96,49.09-158.6
			c39.4-33.38,39.4-33.38,39.4-33.38s-44.99,67.14-41.74,124.63c3.1,54.83-42.08,162.94-82.99,210.74
			C233.9,574.01,203.46,600.08,203.46,600.08z"/>
	</g>
	<path class="st2" d="M357.37,332.96c0,0,2.53-22.76,11.1-37.68c8.57-14.92,16.02-19.72,16.02-19.72s-16.02,29.31-19.23,59.15
		c-3.21,29.84-24.9,78.12-42.98,113.13"/>
	<g>
		<path class="st2" d="M195.61,600.08c0,0-16.36-91.24-45.58-141.21s-32.79-23.91-62.01-76.05s-2.3-118.96-49.09-158.6
			c-39.4-33.38-39.4-33.38-39.4-33.38s44.99,67.14,41.74,124.63c-3.1,54.83,42.08,162.94,82.99,210.74
			C165.17,574.01,195.61,600.08,195.61,600.08z"/>
	</g>
	<path class="st2" d="M41.7,332.96c0,0-2.53-22.76-11.1-37.68c-8.57-14.92-16.02-19.72-16.02-19.72s16.02,29.31,19.23,59.15
		c3.21,29.84,24.9,78.12,42.98,113.13"/>
</g>
</svg>
